<svg xmlns="http://www.w3.org/2000/svg" height="20" viewBox="0 96 960 960" width="20"><path d="M164 896q-34.65 0-59.325-24.675Q80 846.65 80 812V340q0-34.65 24.675-59.325Q129.35 256 164 256h632q34.65 0 59.325 24.675Q880 305.35 880 340v472q0 34.65-24.675 59.325Q830.65 896 796 896H164Zm316-282q6 0 11.5-1.75T502 607l277.165-173.11Q787 429 791.5 422q4.5-7 4.5-18 0-20.5-17.5-30.75T742 374L480 538 218 374q-17-11-35.5-.5T164 404.31q0 10.69 4.25 18.19Q172.5 430 181 434l277.104 173.067Q463 610 468.5 612q5.5 2 11.5 2Z"/></svg>