<?xml version="1.0" encoding="UTF-8"?>
<svg width="32px" height="32px" viewBox="0 0 32 32" version="1.1" xmlns="http://www.w3.org/2000/svg" xmlns:xlink="http://www.w3.org/1999/xlink">
    <!-- Generator: Sketch 61 (89581) - https://sketch.com -->
    <title>people/busts-in-silhouette</title>
    <desc>Created with Sketch.</desc>
    <g id="people/busts-in-silhouette" stroke="none" stroke-width="1" fill="none" fill-rule="evenodd">
        <g id="busts-in-silhouette" transform="translate(1.000000, 3.000000)" fill-rule="nonzero">
            <path d="M13.8818182,19.7966001 C13.1311364,18.8949427 9.30511364,17.8977476 9.25943182,16.8155546 C9.23215909,16.2586486 11.5725,15.7741607 12.1077273,11.8792181 C13.1870455,4.04241405 1.81295455,4.03799416 2.89193182,11.8795581 C3.42852273,15.7741607 5.76886364,16.2572886 5.73954545,16.8155546 C5.67886364,17.9154271 1.87056818,18.8952826 1.11818182,19.7966001 C0.0957954545,21.0229494 0,23 0,23 L15,23 C15,23 14.9035227,21.0249894 13.8818182,19.7966001 Z" id="Path" fill="#99A8AE"></path>
            <path d="M28.8818182,19.7966001 C28.1311364,18.8949427 24.3051136,17.8977476 24.2594318,16.8155546 C24.2321591,16.2586486 26.5725,15.7741607 27.1077273,11.8792181 C28.1870455,4.04241405 16.8129545,4.03799416 17.8919318,11.8795581 C18.4285227,15.7741607 20.7688636,16.2572886 20.7395455,16.8155546 C20.6788636,17.9154271 16.8705682,18.8952826 16.1181818,19.7966001 C15.0957955,21.0229494 15,23 15,23 L30,23 C30,23 29.9035227,21.0249894 28.8818182,19.7966001 Z" id="Path" fill="#99A8AE"></path>
            <path d="M24.4010959,21.1491415 C23.3000959,19.770136 17.6885959,18.2450142 17.6215959,16.5898955 C17.5815959,15.7381568 21.0140959,14.9971754 21.7990959,9.04020433 C23.3820959,-2.94549596 6.70009589,-2.95225579 8.28259589,9.04072432 C9.06959589,14.9971754 12.5020959,15.7360769 12.4590959,16.5898955 C12.3700959,18.2720535 6.78459589,19.770656 5.68109589,21.1491415 C4.18159589,23.0247346 4.04109589,26.048459 4.04109589,26.048459 L26.0410959,26.048459 C26.0410959,26.048459 25.8995959,23.0278546 24.4010959,21.1491415 Z" id="Path" fill="#4E5E67"></path>
        </g>
    </g>
</svg>