<?xml version="1.0" encoding="UTF-8"?>
<svg width="32px" height="32px" viewBox="0 0 32 32" version="1.1" xmlns="http://www.w3.org/2000/svg" xmlns:xlink="http://www.w3.org/1999/xlink">
    <!-- Generator: Sketch 61 (89581) - https://sketch.com -->
    <title>custom/smartphone</title>
    <desc>Created with Sketch.</desc>
    <defs>
        <linearGradient x1="46.3738652%" y1="100%" x2="60.9729988%" y2="-7.46124858%" id="linearGradient-1">
            <stop stop-color="#000000" stop-opacity="0.313100962" offset="0%"></stop>
            <stop stop-color="#000000" stop-opacity="0.3" offset="2.94785052%"></stop>
            <stop stop-color="#000000" stop-opacity="0" offset="72.0173483%"></stop>
            <stop stop-color="#000000" stop-opacity="0.2" offset="77.9793471%"></stop>
            <stop stop-color="#000000" stop-opacity="0.2" offset="100%"></stop>
        </linearGradient>
        <path d="M1.53616133,1.53091812 L11.1200094,0.0370616042 C11.5778435,-0.0326820194 12.0434198,-0.0038065192 12.4915025,0.122122958 L14.0313964,0.554895828 C14.5910583,0.712183599 14.9832068,1.27381508 14.9829447,1.91767243 L14.9713321,28.8190529 C14.9710178,29.5479996 14.4905767,30.1659133 13.8437568,30.2692705 L3.34952212,31.9461751 C2.89869139,32.0182147 2.43935804,31.9848773 2.00069447,31.8482803 L1.26505831,31.5660615 C0.508537587,31.3304857 0.0249631879,30.4911717 0.0241445812,29.614948 L-8.13695158e-05,3.52691558 C-0.0010552618,2.39618431 0.531902645,1.68390071 1.53616133,1.53091812 Z" id="path-2"></path>
        <filter x="-182.8%" y="-77.7%" width="465.6%" height="255.4%" filterUnits="objectBoundingBox" id="filter-4">
            <feGaussianBlur stdDeviation="8" in="SourceGraphic"></feGaussianBlur>
        </filter>
        <radialGradient cx="0%" cy="6.32689498%" fx="0%" fy="6.32689498%" r="87.4967585%" gradientTransform="translate(0.000000,0.063269),scale(1.000000,0.468962),rotate(-8.869915),scale(1.000000,2.080314),translate(-0.000000,-0.063269)" id="radialGradient-5">
            <stop stop-color="#FFFFFF" offset="0%"></stop>
            <stop stop-color="#FFFFFF" stop-opacity="0" offset="100%"></stop>
        </radialGradient>
        <filter x="-67.0%" y="-31.4%" width="234.0%" height="162.8%" filterUnits="objectBoundingBox" id="filter-6">
            <feGaussianBlur stdDeviation="3" in="SourceGraphic"></feGaussianBlur>
        </filter>
        <linearGradient x1="40.7274562%" y1="16.5998186%" x2="62.8214138%" y2="73.1183733%" id="linearGradient-7">
            <stop stop-color="#000000" offset="0%"></stop>
            <stop stop-color="#000000" stop-opacity="0" offset="43.5023854%"></stop>
            <stop stop-color="#000000" offset="100%"></stop>
        </linearGradient>
        <filter x="0.0%" y="0.0%" width="100.0%" height="100.0%" filterUnits="objectBoundingBox" id="filter-8">
            <feGaussianBlur stdDeviation="0" in="SourceGraphic"></feGaussianBlur>
        </filter>
        <linearGradient x1="52.7301992%" y1="47.3040366%" x2="40.7274562%" y2="16.5998186%" id="linearGradient-9">
            <stop stop-color="#FFFFFF" stop-opacity="0" offset="0%"></stop>
            <stop stop-color="#FFFFFF" offset="0%"></stop>
            <stop stop-color="#FFFFFF" stop-opacity="0" offset="100%"></stop>
        </linearGradient>
        <filter x="0.0%" y="0.0%" width="100.0%" height="100.0%" filterUnits="objectBoundingBox" id="filter-10">
            <feGaussianBlur stdDeviation="0" in="SourceGraphic"></feGaussianBlur>
        </filter>
        <rect id="path-11" x="0" y="0" width="1" height="3.86206897" rx="0.5"></rect>
        <radialGradient cx="50%" cy="15.3304812%" fx="50%" fy="15.3304812%" r="459.671143%" gradientTransform="translate(0.500000,0.153305),scale(1.000000,0.231977),rotate(90.000000),scale(1.000000,0.240198),translate(-0.500000,-0.153305)" id="radialGradient-13">
            <stop stop-color="#FFFFFF" offset="0%"></stop>
            <stop stop-color="#FFFFFF" stop-opacity="0.0227311533" offset="80.2146193%"></stop>
            <stop stop-color="#FFFFFF" stop-opacity="0" offset="100%"></stop>
        </radialGradient>
        <rect id="path-14" x="0.350364964" y="-0.0551724138" width="1" height="4.02758621" rx="0.5"></rect>
        <filter x="-963.3%" y="-223.5%" width="2026.6%" height="546.9%" filterUnits="objectBoundingBox" id="filter-15">
            <feGaussianBlur stdDeviation="3" in="SourceGraphic"></feGaussianBlur>
        </filter>
        <rect id="path-16" x="0" y="0" width="1" height="3.86206897" rx="0.5"></rect>
        <rect id="path-18" x="0.350364964" y="-0.0551724138" width="1" height="4.02758621" rx="0.5"></rect>
        <filter x="-963.3%" y="-223.5%" width="2026.6%" height="546.9%" filterUnits="objectBoundingBox" id="filter-19">
            <feGaussianBlur stdDeviation="3" in="SourceGraphic"></feGaussianBlur>
        </filter>
    </defs>
    <g id="custom/smartphone" stroke="none" stroke-width="1" fill="none" fill-rule="evenodd">
        <g id="Smartphone" transform="translate(8.000000, 0.000000)">
            <g transform="translate(0.529412, 0.000000)" id="Group-2">
                <g>
                    <g id="Smartphone">
                        <mask id="mask-3" fill="white">
                            <use xlink:href="#path-2"></use>
                        </mask>
                        <g id="Back-Shadow" fill-rule="nonzero">
                            <use fill="#242424" style="mix-blend-mode: multiply;" xlink:href="#path-2"></use>
                            <use fill-opacity="0.7" fill="url(#linearGradient-1)" xlink:href="#path-2"></use>
                        </g>
                        <path d="M4.28532031,2.47134554 L13.7685165,1.11695248 C14.5324301,1.0078501 15.2356617,1.57178084 15.3392282,2.37652703 C15.3476545,2.44200186 15.351882,2.50800054 15.351882,2.57407435 C15.351882,4.23458212 15.351882,5.47996295 15.351882,6.31021684 C15.351882,7.19567034 15.3392282,8.10872405 15.3392282,9.14983504 C15.3392282,12.4039827 15.3434461,19.0127618 15.351882,28.9761724 C15.351882,29.7080827 14.8409124,30.3285705 14.1530974,30.4318974 L3.81400939,31.9850862 C3.05082813,32.0997351 2.34392203,31.540926 2.23509043,30.7369513 C2.22578232,30.6681892 2.22111072,30.5988189 2.22111072,30.5293612 L2.22111072,4.96059541 C2.22111072,3.70366584 3.10298337,2.64020727 4.28532031,2.47134554 Z" id="Front-Fill" fill="#2F2F2F" filter="url(#filter-4)" mask="url(#mask-3)"></path>
                        <path d="M4.17708197,2.79843873 L14.5286199,1.11887218 C15.2394317,1.00354095 15.9001801,1.54744529 16.0044429,2.33371653 C16.0124218,2.39388758 16.0169441,2.45455764 16.0179826,2.51536169 L16.4559673,28.1586311 C16.4684558,28.8898086 15.9831446,29.5150512 15.327858,29.6120122 L3.75065019,31.3250606 C3.03857496,31.4304245 2.38410696,30.877307 2.28885501,30.0896381 C2.28120738,30.0263974 2.27737086,29.962664 2.27737086,29.89886 L2.27737086,5.23054168 C2.27737086,3.68924166 2.28885501,3.10480894 4.17708197,2.79843873 Z" id="Front-Glow" stroke="url(#radialGradient-5)" filter="url(#filter-6)" mask="url(#mask-3)"></path>
                        <path d="M4.73190811,3.76048236 L12.7577037,2.43613863 C13.477788,2.26666525 14.0546136,2.43613863 14.0442491,3.58571376 C14.0438743,3.62728809 14.0473291,11.6641412 14.0546136,27.696273 C14.0546136,28.3642652 13.6360864,28.9305653 13.0727079,29.0248687 L4.60412256,30.5044684 C3.97901272,30.6091049 3.39999699,30.099097 3.31085473,29.3653338 C3.3032306,29.3025768 3.299401,29.2392646 3.299401,29.1758727 L3.299401,5.93137101 C3.299401,4.78420986 3.33457939,3.98285093 4.73190811,3.76048236 Z" id="Front-Fill" fill="url(#linearGradient-7)" filter="url(#filter-8)" mask="url(#mask-3)"></path>
                    </g>
                    <g id="Apps" transform="translate(4.379562, 4.579310)">
                        <g id="Group-3">
                            <path d="M0.474119305,1.20847223 L1.84273244,0.998768796 C2.14235372,0.952859832 2.41807391,1.19099526 2.45857071,1.53065916 C2.46185562,1.55821113 2.46350365,1.5859822 2.46350365,1.61378469 L2.46350365,3.0868567 C2.46350365,3.39748354 2.26092267,3.6602666 1.98938434,3.7018726 L0.620771206,3.91157603 C0.321149927,3.957485 0.045429744,3.71934957 0.00493293974,3.37968567 C0.00164802577,3.3521337 0,3.32436263 0,3.29656014 L0,1.82348813 C0,1.51286129 0.202580976,1.25007823 0.474119305,1.20847223 Z" id="Rectangle" fill="#009FDF"></path>
                            <path d="M3.64930179,0.711920506 L5.01791493,0.502217072 C5.3175362,0.456308108 5.59325639,0.694443535 5.63375319,1.03410744 C5.63703811,1.0616594 5.63868613,1.08943048 5.63868613,1.11723297 L5.63868613,2.59030498 C5.63868613,2.90093181 5.43610516,3.16371487 5.16456683,3.20532087 L3.79595369,3.41502431 C3.49633241,3.46093327 3.22061223,3.22279784 3.18011542,2.88313394 C3.17683051,2.85558197 3.17518248,2.8278109 3.17518248,2.80000841 L3.17518248,1.3269364 C3.17518248,1.01630957 3.37776346,0.753526508 3.64930179,0.711920506 Z" id="Rectangle" fill="#43B02A"></path>
                            <path d="M6.76973974,0.215368782 L8.13835288,0.00566534745 C8.43797416,-0.0402436165 8.71369434,0.197891811 8.75419115,0.537555711 C8.75747606,0.56510768 8.75912409,0.592878751 8.75912409,0.620681244 L8.75912409,2.09375325 C8.75912409,2.40438009 8.55654311,2.66716315 8.28500478,2.70876915 L6.91639164,2.91847258 C6.61677037,2.96438155 6.34105018,2.72624612 6.30055338,2.38658222 C6.29726846,2.35903025 6.29562044,2.33125918 6.29562044,2.30345669 L6.29562044,0.830384679 C6.29562044,0.519757841 6.49820141,0.256974784 6.76973974,0.215368782 Z" id="Rectangle" fill="#702082"></path>
                        </g>
                        <g id="Group-3" transform="translate(0.000000, 3.917241)">
                            <path d="M0.474119305,1.20847223 L1.84273244,0.998768796 C2.14235372,0.952859832 2.41807391,1.19099526 2.45857071,1.53065916 C2.46185562,1.55821113 2.46350365,1.5859822 2.46350365,1.61378469 L2.46350365,3.0868567 C2.46350365,3.39748354 2.26092267,3.6602666 1.98938434,3.7018726 L0.620771206,3.91157603 C0.321149927,3.957485 0.045429744,3.71934957 0.00493293974,3.37968567 C0.00164802577,3.3521337 0,3.32436263 0,3.29656014 L0,1.82348813 C0,1.51286129 0.202580976,1.25007823 0.474119305,1.20847223 Z" id="Rectangle" fill="#43B02A"></path>
                            <path d="M3.64930179,0.711920506 L5.01791493,0.502217072 C5.3175362,0.456308108 5.59325639,0.694443535 5.63375319,1.03410744 C5.63703811,1.0616594 5.63868613,1.08943048 5.63868613,1.11723297 L5.63868613,2.59030498 C5.63868613,2.90093181 5.43610516,3.16371487 5.16456683,3.20532087 L3.79595369,3.41502431 C3.49633241,3.46093327 3.22061223,3.22279784 3.18011542,2.88313394 C3.17683051,2.85558197 3.17518248,2.8278109 3.17518248,2.80000841 L3.17518248,1.3269364 C3.17518248,1.01630957 3.37776346,0.753526508 3.64930179,0.711920506 Z" id="Rectangle" fill="#702082"></path>
                            <path d="M6.76973974,0.215368782 L8.13835288,0.00566534745 C8.43797416,-0.0402436165 8.71369434,0.197891811 8.75419115,0.537555711 C8.75747606,0.56510768 8.75912409,0.592878751 8.75912409,0.620681244 L8.75912409,2.09375325 C8.75912409,2.40438009 8.55654311,2.66716315 8.28500478,2.70876915 L6.91639164,2.91847258 C6.61677037,2.96438155 6.34105018,2.72624612 6.30055338,2.38658222 C6.29726846,2.35903025 6.29562044,2.33125918 6.29562044,2.30345669 L6.29562044,0.830384679 C6.29562044,0.519757841 6.49820141,0.256974784 6.76973974,0.215368782 Z" id="Rectangle" fill="#009FDF"></path>
                        </g>
                        <g id="Group-3" transform="translate(0.000000, 7.834483)">
                            <path d="M0.474119305,1.20847223 L1.84273244,0.998768796 C2.14235372,0.952859832 2.41807391,1.19099526 2.45857071,1.53065916 C2.46185562,1.55821113 2.46350365,1.5859822 2.46350365,1.61378469 L2.46350365,3.0868567 C2.46350365,3.39748354 2.26092267,3.6602666 1.98938434,3.7018726 L0.620771206,3.91157603 C0.321149927,3.957485 0.045429744,3.71934957 0.00493293974,3.37968567 C0.00164802577,3.3521337 0,3.32436263 0,3.29656014 L0,1.82348813 C0,1.51286129 0.202580976,1.25007823 0.474119305,1.20847223 Z" id="Rectangle" fill="#702082"></path>
                            <path d="M3.64930179,0.711920506 L5.01791493,0.502217072 C5.3175362,0.456308108 5.59325639,0.694443535 5.63375319,1.03410744 C5.63703811,1.0616594 5.63868613,1.08943048 5.63868613,1.11723297 L5.63868613,2.59030498 C5.63868613,2.90093181 5.43610516,3.16371487 5.16456683,3.20532087 L3.79595369,3.41502431 C3.49633241,3.46093327 3.22061223,3.22279784 3.18011542,2.88313394 C3.17683051,2.85558197 3.17518248,2.8278109 3.17518248,2.80000841 L3.17518248,1.3269364 C3.17518248,1.01630957 3.37776346,0.753526508 3.64930179,0.711920506 Z" id="Rectangle" fill="#009FDF"></path>
                            <path d="M6.76973974,0.215368782 L8.13835288,0.00566534745 C8.43797416,-0.0402436165 8.71369434,0.197891811 8.75419115,0.537555711 C8.75747606,0.56510768 8.75912409,0.592878751 8.75912409,0.620681244 L8.75912409,2.09375325 C8.75912409,2.40438009 8.55654311,2.66716315 8.28500478,2.70876915 L6.91639164,2.91847258 C6.61677037,2.96438155 6.34105018,2.72624612 6.30055338,2.38658222 C6.29726846,2.35903025 6.29562044,2.33125918 6.29562044,2.30345669 L6.29562044,0.830384679 C6.29562044,0.519757841 6.49820141,0.256974784 6.76973974,0.215368782 Z" id="Rectangle" fill="#43B02A"></path>
                        </g>
                        <g id="Group-3" transform="translate(0.000000, 11.751724)">
                            <path d="M0.474119305,1.20847223 L1.84273244,0.998768796 C2.14235372,0.952859832 2.41807391,1.19099526 2.45857071,1.53065916 C2.46185562,1.55821113 2.46350365,1.5859822 2.46350365,1.61378469 L2.46350365,3.0868567 C2.46350365,3.39748354 2.26092267,3.6602666 1.98938434,3.7018726 L0.620771206,3.91157603 C0.321149927,3.957485 0.045429744,3.71934957 0.00493293974,3.37968567 C0.00164802577,3.3521337 0,3.32436263 0,3.29656014 L0,1.82348813 C0,1.51286129 0.202580976,1.25007823 0.474119305,1.20847223 Z" id="Rectangle" fill="#009FDF"></path>
                            <path d="M3.64930179,0.711920506 L5.01791493,0.502217072 C5.3175362,0.456308108 5.59325639,0.694443535 5.63375319,1.03410744 C5.63703811,1.0616594 5.63868613,1.08943048 5.63868613,1.11723297 L5.63868613,2.59030498 C5.63868613,2.90093181 5.43610516,3.16371487 5.16456683,3.20532087 L3.79595369,3.41502431 C3.49633241,3.46093327 3.22061223,3.22279784 3.18011542,2.88313394 C3.17683051,2.85558197 3.17518248,2.8278109 3.17518248,2.80000841 L3.17518248,1.3269364 C3.17518248,1.01630957 3.37776346,0.753526508 3.64930179,0.711920506 Z" id="Rectangle" fill="#702082"></path>
                            <path d="M6.76973974,0.215368782 L8.13835288,0.00566534745 C8.43797416,-0.0402436165 8.71369434,0.197891811 8.75419115,0.537555711 C8.75747606,0.56510768 8.75912409,0.592878751 8.75912409,0.620681244 L8.75912409,2.09375325 C8.75912409,2.40438009 8.55654311,2.66716315 8.28500478,2.70876915 L6.91639164,2.91847258 C6.61677037,2.96438155 6.34105018,2.72624612 6.30055338,2.38658222 C6.29726846,2.35903025 6.29562044,2.33125918 6.29562044,2.30345669 L6.29562044,0.830384679 C6.29562044,0.519757841 6.49820141,0.256974784 6.76973974,0.215368782 Z" id="Rectangle" fill="#009FDF"></path>
                        </g>
                    </g>
                    <path d="M4.73190811,3.76048236 L12.7577037,2.43613863 C13.477788,2.26666525 14.0546136,2.43613863 14.0442491,3.58571376 C14.0438743,3.62728809 14.0473291,11.6641412 14.0546136,27.696273 C14.0546136,28.3642652 13.6360864,28.9305653 13.0727079,29.0248687 L4.60412256,30.5044684 C3.97901272,30.6091049 3.39999699,30.099097 3.31085473,29.3653338 C3.3032306,29.3025768 3.299401,29.2392646 3.299401,29.1758727 L3.299401,5.93137101 C3.299401,4.78420986 3.33457939,3.98285093 4.73190811,3.76048236 Z" id="Glow" fill-opacity="0.1" fill="url(#linearGradient-9)" filter="url(#filter-10)"></path>
                    <g id="Knobs" transform="translate(0.383212, 6.455172)">
                        <g id="Rectangle">
                            <mask id="mask-12" fill="white">
                                <use xlink:href="#path-11"></use>
                            </mask>
                            <use id="Mask" fill="#181818" xlink:href="#path-11"></use>
                            <g filter="url(#filter-15)" mask="url(#mask-12)">
                                <use fill="#242424" xlink:href="#path-14"></use>
                                <use fill-opacity="0.2" fill="url(#radialGradient-13)" xlink:href="#path-14"></use>
                            </g>
                        </g>
                        <g id="Rectangle" transform="translate(0.000000, 5.241379)">
                            <mask id="mask-17" fill="white">
                                <use xlink:href="#path-16"></use>
                            </mask>
                            <use id="Mask" fill="#181818" xlink:href="#path-16"></use>
                            <g filter="url(#filter-19)" mask="url(#mask-17)">
                                <use fill="#242424" xlink:href="#path-18"></use>
                                <use fill-opacity="0.2" fill="url(#radialGradient-13)" xlink:href="#path-18"></use>
                            </g>
                        </g>
                    </g>
                </g>
            </g>
        </g>
    </g>
</svg>