<svg xmlns:xlink="http://www.w3.org/1999/xlink" viewBox="0 0 147.407 55.568" width="64" height="24" xmlns="http://www.w3.org/2000/svg">
    <path fill="#FFD300" d="M21.498 16.545L0 19.566v8.02l21.64-2.38v-8.68zM6.905 28.075v27.488h7.923V27.266zM24.562 16.114v39.45h8.348V14.94zM34.465 14.722v9.075L46.52 22.47v-9.443zM34.465 30.55v9.242l7.913-.432v-9.49zM34.465 46.45v9.114H46.52v-9.476zM77.692 8.633v46.935l10.945-.006V7.095zM90.682 6.807v10.795l15.947-1.754V4.568zM90.682 25.721v10.995l10.453-.57V24.824zM90.682 44.752v10.81h15.947v-11.29zM49.708 12.58v42.977l9.51.005v-44.32zM60.992 45.65v9.911h13.805l.006-10.327zM142.383 4.035c-3.457-3.269-8.53-4.608-14.075-3.81v11.972c2.244-.126 4.065.709 4.877 2.387 1.28 2.646-.04 6.616-3.157 10.296-4.81 5.674-17.601 17.293-17.601 17.293l18.362-.604c11.219-10.96 15.248-17.615 15.97-25.919.382-4.392-1.214-8.625-4.376-11.615M110.161 44.157l.007 11.406h37.24v-12.53z"/><path fill="#FFD300" d="M126.167.493c-10.821 2.303-16.134 10.263-15.52 23.252l11.537-1.024c-.526-7.338 1.717-9.078 3.989-10.035L126.167.493z"/>
</svg>