<?xml version="1.0" encoding="UTF-8"?>
<svg width="42px" height="46px" viewBox="0 0 42 46" version="1.1" xmlns="http://www.w3.org/2000/svg" xmlns:xlink="http://www.w3.org/1999/xlink">
    <title>people/waving-hand</title>
    <defs>
        <radialGradient cx="34.8162913%" cy="30.5862485%" fx="34.8162913%" fy="30.5862485%" r="85.8573536%" gradientTransform="translate(0.348163,0.305862),scale(1.000000,0.933100),rotate(45.360396),translate(-0.348163,-0.305862)" id="radialGradient-1">
            <stop stop-color="#FFCC66" offset="43.64%"></stop>
            <stop stop-color="#FECB64" offset="68.59%"></stop>
            <stop stop-color="#FAC65D" offset="79.67%"></stop>
            <stop stop-color="#F4BD50" offset="88%"></stop>
            <stop stop-color="#F2BA4B" offset="90.3%"></stop>
        </radialGradient>
    </defs>
    <g id="AB---Chatbot-Mobiel" stroke="none" stroke-width="1" fill="none" fill-rule="evenodd">
        <g id="Desktop" transform="translate(-475.000000, -280.000000)" fill-rule="nonzero">
            <g id="Chat" transform="translate(158.000000, 232.000000)">
                <g id="Content" transform="translate(48.000000, 48.000000)">
                    <g id="Group" transform="translate(266.000000, 0.000000)">
                        <g id="waving-hand" transform="translate(3.000000, 0.000000)">
                            <path d="M34.4865,8.442 C30.036,13.1265 34.00425,17.94375 31.63275,18.21975 C31.01625,18.2895 29.25675,16.26825 29.25675,16.26825 C26.2335,13.08675 22.02075,8.7555 15.774,2.43225 C12.633,-0.75075 7.9545,3.981 11.1,7.16775 C10.31175,6.36825 9.50625,5.55225 8.67975,4.7145 C5.54025,1.536 0.8355,6.24375 4.00425,9.44925 C4.851,10.30725 5.652,11.12025 6.426,11.9025 C3.288,8.72625 -1.3875,13.461 1.749,16.6365 C2.41875,17.31525 3.95775,18.87225 5.77425,20.71425 C2.51025,17.68425 -1.29675,21.67725 1.728,24.957 C5.1705,28.6875 12.24825,36.19875 16.0395,40.02525 C21.474,45.51225 29.58675,47.41275 35.4885,41.20275 C48.32025,27.70425 35.76975,21.50475 38.997,8.5035 C39.39525,6.89325 36.70875,6.1065 34.4865,8.442 Z" id="Path" fill="url(#radialGradient-1)"></path>
                            <path d="M29.26575,10.9335 C26.3445,5.03175 21.234,3.50025 21.18225,3.48525 C20.16675,3.19125 20.48325,2.07225 21.49875,2.36925 C21.7275,2.4345 27.14925,4.0605 30.2955,10.41375 C30.747,11.328 29.745,11.9025 29.26575,10.9335 Z" id="Path" fill="#0FB4D4"></path>
                            <path d="M30.78225,7.01625 C29.36025,3.4305 25.76625,1.9305 25.73025,1.9155 C24.74175,1.5135 25.16925,0.43725 26.15925,0.837 C26.325,0.90375 30.2415,2.52525 31.84875,6.5835 C32.21775,7.512 31.1775,8.016 30.78225,7.01625 Z" id="Path" fill="#0FB4D4"></path>
                            <path d="M9.75225,38.1405 C4.07625,37.32 2.44125,31.764 2.37375,31.5285 C2.0835,30.50325 3.18525,30.18375 3.48,31.2075 C3.54,31.41375 4.989,36.279 9.912,36.99075 C10.94325,37.13925 10.6665,38.274 9.75225,38.1405 Z" id="Path" fill="#0FB4D4"></path>
                            <path d="M8.994,42.01575 C2.6025,41.208 0.19575,35.703 0.0975,35.4705 C-0.32475,34.479 0.7305,34.02 1.1535,35.01075 C1.17525,35.06325 3.4155,40.13925 9.13575,40.863 C10.164,40.99125 9.906,42.13125 8.994,42.01575 Z" id="Path" fill="#0FB4D4"></path>
                            <path d="M30.98025,18.01575 C28.7565,20.4525 28.97325,27.9735 33.42075,32.09175 C29.84475,27.90975 30.34575,20.3565 32.60475,18.12975 L30.98025,18.01575 Z" id="Path" fill="#D9A640"></path>
                            <path d="M34.0665,8.04 C29.84625,12.39225 32.72625,17.42625 31.6305,17.6445 C31.185,17.733 30.16875,16.1505 16.1775,2.02275 C13.4355,-0.74625 9.564,1.62 9.4815,4.71075 L9.08175,4.30575 C5.39175,0.57975 -0.12075,6.111 3.59175,9.86025 L3.9975,10.272 C0.9915,10.35375 -1.42125,14.25525 1.33575,17.04675 L3.32025,19.05675 C0.4185,19.07775 -1.218,22.623 1.302,25.3545 C4.72125,29.05875 11.79,36.56325 15.627,40.43625 C22.758,47.63625 30.7635,47.00775 35.907,41.61225 C49.0335,27.843 36.37725,21.43125 39.54975,8.6445 C40.07925,6.501 36.8895,5.13075 34.0665,8.04 Z M38.433,8.3625 C35.14875,21.606 47.691,27.531 35.0715,40.80375 C30.696,45.4035 23.53575,46.7775 16.4415,39.61575 C12.6135,35.75025 5.5575,28.26075 2.14425,24.561 C-0.393,21.81075 2.6775,18.63375 5.37975,21.14025 L14.3505,30.22125 L15.165,29.4 L2.15175,16.22625 C0.14625,14.1975 2.04075,11.4315 4.09425,11.433 C4.77975,11.433 5.4435,11.7375 6.012,12.31275 C6.012,12.3135 19.0275,25.48725 19.0275,25.48725 L19.842,24.666 L4.407,9.03975 C1.80525,6.414 5.673,2.508 8.26575,5.12475 L23.703,20.751 L24.5175,19.92975 L11.45925,6.70575 C8.88825,4.00275 12.807,0.26175 15.363,2.84325 C29.808,17.427 30.35325,18.96525 31.6935,18.798 C34.92825,18.39225 30.54225,13.335 34.89675,8.84475 C36.66375,7.02375 38.6745,7.383 38.433,8.3625 Z" id="Shape" fill="#D9A640"></path>
                        </g>
                    </g>
                </g>
            </g>
        </g>
    </g>
</svg>